<?xml version="1.0" standalone="no"?>
<!DOCTYPE svg PUBLIC "-//W3C//DTD SVG 20010904//EN"
 "http://www.w3.org/TR/2001/REC-SVG-20010904/DTD/svg10.dtd">
<svg version="1.0" xmlns="http://www.w3.org/2000/svg"
 width="2560.000000pt" height="2560.000000pt" viewBox="0 0 2560.000000 2560.000000"
 preserveAspectRatio="xMidYMid meet">

<g transform="translate(0.000000,2560.000000) scale(0.100000,-0.100000)"
fill="#000000" stroke="none">
<path d="M9137 23393 c-62 -60 -130 -128 -152 -152 -22 -25 -69 -72 -103 -106
-35 -33 -195 -192 -355 -353 -161 -161 -321 -321 -355 -355 -35 -34 -877 -875
-1871 -1869 -995 -995 -1813 -1808 -1820 -1808 -6 0 -11 -5 -11 -11 0 -6 -267
-276 -592 -600 -326 -325 -596 -594 -600 -597 -710 -710 -1382 -1392 -1389
-1410 -5 -14 -9 -3018 -9 -7361 0 -6506 2 -7340 15 -7351 10 -8 52 -13 117
-13 57 -1 3372 0 7367 1 l7265 2 493 493 c271 270 821 820 1221 1220 400 401
751 752 781 780 29 29 60 59 68 67 43 45 745 747 1665 1666 574 573 1060 1059
1080 1080 20 22 472 473 1004 1004 531 531 978 980 993 999 l26 34 0 7353 c0
7216 0 7352 -19 7373 l-19 21 -7344 0 -7345 0 -111 -107z m14794 50 c12 -14
14 -1142 17 -7287 2 -3999 0 -7300 -3 -7336 l-6 -65 -3662 -3662 -3662 -3662
-55 -6 c-30 -3 -3335 -5 -7343 -3 -6465 3 -7289 5 -7297 18 -13 20 -13 14640
-1 14672 11 26 7297 7315 7333 7334 19 11 1407 13 7344 14 6799 0 7323 -1
7335 -17z"/>
<path d="M7020 17490 c-8 -5 -585 -579 -1282 -1276 l-1268 -1268 0 -5452 0
-5452 35 -31 36 -31 2654 0 2655 0 38 34 37 34 5 1642 c5 1610 5 1642 24 1656
17 12 205 14 1264 14 838 0 1250 -3 1263 -10 19 -11 19 -39 19 -1636 0 -1585
0 -1626 19 -1663 11 -20 27 -44 37 -52 15 -12 219 -14 1419 -17 772 -1 1412 1
1423 5 25 10 2535 2506 2562 2549 20 31 20 59 20 5455 0 5345 0 5424 -19 5453
-11 16 -30 35 -43 42 -19 11 -539 13 -2682 14 l-2658 0 -39 -39 -39 -39 0
-1633 c0 -1013 -4 -1640 -10 -1649 -8 -13 -160 -15 -1270 -15 -1237 0 -1262 0
-1276 19 -12 17 -14 258 -14 1651 0 1461 -2 1633 -16 1653 -38 55 44 52 -1476
52 -841 0 -1409 -4 -1418 -10z m2860 -41 l25 -21 3 -1649 c2 -1622 2 -1649 22
-1659 15 -8 1212 -13 2542 -10 63 0 58 -131 58 1677 l0 1645 23 19 c21 18 95
18 2689 19 l2667 0 25 -33 26 -34 0 -5409 c0 -5221 -1 -5410 -18 -5439 -10
-16 -128 -138 -261 -270 -134 -132 -257 -255 -275 -274 -56 -61 -624 -625
-690 -686 -36 -33 -65 -66 -66 -72 0 -7 -7 -13 -15 -13 -8 0 -15 -6 -15 -13 0
-7 -33 -41 -72 -77 -40 -36 -86 -81 -103 -100 -16 -19 -70 -74 -120 -122 -49
-47 -96 -92 -103 -100 -7 -7 -53 -53 -101 -103 -48 -49 -111 -112 -139 -138
-29 -26 -52 -54 -52 -62 0 -9 -6 -12 -15 -9 -8 4 -15 1 -15 -6 0 -11 -37 -49
-159 -163 -28 -26 -51 -52 -51 -57 0 -6 -7 -13 -15 -16 -8 -4 -15 -12 -15 -20
0 -8 -7 -14 -15 -14 -8 0 -15 -7 -15 -15 0 -8 -7 -15 -15 -15 -8 0 -15 -7 -15
-15 0 -8 -5 -15 -11 -15 -12 0 -14 -1 -103 -90 -36 -35 -66 -68 -66 -72 0 -4
-640 -8 -1422 -8 l-1422 0 -23 27 -23 26 0 1636 -1 1636 -24 28 -24 27 -1256
0 c-1255 0 -1257 0 -1286 -21 l-29 -20 0 -1639 0 -1638 -26 -31 -26 -31 -2660
0 -2661 0 -29 32 -28 32 0 5424 0 5425 223 223 c122 123 236 238 254 256 17
18 225 226 462 462 237 236 431 433 431 438 0 4 4 8 8 8 10 0 142 127 142 136
0 3 16 20 36 37 39 35 218 212 326 323 37 38 167 169 290 291 123 122 237 237
254 255 17 18 42 41 56 51 14 9 31 29 38 42 l13 25 1421 0 1421 -1 25 -20z"/>
</g>
</svg>
